<mxfile host="65bd71144e">
    <diagram name="ordino4" id="MA1icedC_llVaALbQTpd">
        <mxGraphModel dx="984" dy="374" grid="1" gridSize="10" guides="1" tooltips="1" connect="1" arrows="1" fold="1" page="1" pageScale="1" pageWidth="827" pageHeight="1169" math="0" shadow="0">
            <root>
                <mxCell id="c7bITvOqj9Y9rn15JvYP-0"/>
                <mxCell id="c7bITvOqj9Y9rn15JvYP-1" parent="c7bITvOqj9Y9rn15JvYP-0"/>
                <mxCell id="c7bITvOqj9Y9rn15JvYP-3" value="FIN" style="ellipse;whiteSpace=wrap;html=1;" vertex="1" parent="c7bITvOqj9Y9rn15JvYP-1">
                    <mxGeometry x="194" y="553" width="130" height="40" as="geometry"/>
                </mxCell>
                <mxCell id="c7bITvOqj9Y9rn15JvYP-4" style="edgeStyle=none;html=1;exitX=0.5;exitY=1;exitDx=0;exitDy=0;entryX=0.5;entryY=0;entryDx=0;entryDy=0;" edge="1" parent="c7bITvOqj9Y9rn15JvYP-1" source="c7bITvOqj9Y9rn15JvYP-5" target="c7bITvOqj9Y9rn15JvYP-7">
                    <mxGeometry relative="1" as="geometry"/>
                </mxCell>
                <mxCell id="c7bITvOqj9Y9rn15JvYP-5" value="DÃ‰BUT" style="ellipse;whiteSpace=wrap;html=1;" vertex="1" parent="c7bITvOqj9Y9rn15JvYP-1">
                    <mxGeometry x="309" y="20" width="180" height="30" as="geometry"/>
                </mxCell>
                <mxCell id="c7bITvOqj9Y9rn15JvYP-6" style="edgeStyle=none;html=1;exitX=0.5;exitY=1;exitDx=0;exitDy=0;entryX=0.5;entryY=0;entryDx=0;entryDy=0;" edge="1" parent="c7bITvOqj9Y9rn15JvYP-1" source="c7bITvOqj9Y9rn15JvYP-7" target="c7bITvOqj9Y9rn15JvYP-24">
                    <mxGeometry relative="1" as="geometry"/>
                </mxCell>
                <mxCell id="c7bITvOqj9Y9rn15JvYP-7" value="AFFICHER &quot;Entrez un nombre&quot;" style="shape=parallelogram;perimeter=parallelogramPerimeter;whiteSpace=wrap;html=1;fixedSize=1;" vertex="1" parent="c7bITvOqj9Y9rn15JvYP-1">
                    <mxGeometry x="304" y="80" width="190" height="40" as="geometry"/>
                </mxCell>
                <mxCell id="c7bITvOqj9Y9rn15JvYP-8" style="edgeStyle=none;html=1;exitX=0.5;exitY=1;exitDx=0;exitDy=0;entryX=0;entryY=0.5;entryDx=0;entryDy=0;" edge="1" parent="c7bITvOqj9Y9rn15JvYP-1" source="c7bITvOqj9Y9rn15JvYP-9" target="c7bITvOqj9Y9rn15JvYP-3">
                    <mxGeometry relative="1" as="geometry"/>
                </mxCell>
                <mxCell id="c7bITvOqj9Y9rn15JvYP-9" value="AFFICHER &quot;trop&quot;" style="shape=parallelogram;perimeter=parallelogramPerimeter;whiteSpace=wrap;html=1;fixedSize=1;" vertex="1" parent="c7bITvOqj9Y9rn15JvYP-1">
                    <mxGeometry x="50" y="463" width="159.5" height="40" as="geometry"/>
                </mxCell>
                <mxCell id="c7bITvOqj9Y9rn15JvYP-10" style="edgeStyle=none;html=1;exitX=0.5;exitY=1;exitDx=0;exitDy=0;entryX=0.5;entryY=1;entryDx=0;entryDy=0;" edge="1" parent="c7bITvOqj9Y9rn15JvYP-1" source="c7bITvOqj9Y9rn15JvYP-12" target="c7bITvOqj9Y9rn15JvYP-3">
                    <mxGeometry relative="1" as="geometry">
                        <Array as="points">
                            <mxPoint x="553" y="593"/>
                        </Array>
                    </mxGeometry>
                </mxCell>
                <mxCell id="c7bITvOqj9Y9rn15JvYP-11" value="AFFICHER &quot;parfait&quot;" style="shape=parallelogram;perimeter=parallelogramPerimeter;whiteSpace=wrap;html=1;fixedSize=1;" vertex="1" parent="c7bITvOqj9Y9rn15JvYP-1">
                    <mxGeometry x="299" y="463" width="157.5" height="40" as="geometry"/>
                </mxCell>
                <mxCell id="c7bITvOqj9Y9rn15JvYP-12" value="AFFICHER &quot;pas assez&quot;" style="shape=parallelogram;perimeter=parallelogramPerimeter;whiteSpace=wrap;html=1;fixedSize=1;" vertex="1" parent="c7bITvOqj9Y9rn15JvYP-1">
                    <mxGeometry x="469.5" y="383" width="166" height="40" as="geometry"/>
                </mxCell>
                <mxCell id="c7bITvOqj9Y9rn15JvYP-13" style="edgeStyle=none;html=1;exitX=0.5;exitY=1;exitDx=0;exitDy=0;entryX=1;entryY=0.5;entryDx=0;entryDy=0;" edge="1" parent="c7bITvOqj9Y9rn15JvYP-1" source="c7bITvOqj9Y9rn15JvYP-11" target="c7bITvOqj9Y9rn15JvYP-3">
                    <mxGeometry relative="1" as="geometry"/>
                </mxCell>
                <mxCell id="c7bITvOqj9Y9rn15JvYP-14" style="edgeStyle=none;html=1;exitX=0;exitY=0.5;exitDx=0;exitDy=0;entryX=0.5;entryY=0;entryDx=0;entryDy=0;" edge="1" parent="c7bITvOqj9Y9rn15JvYP-1" source="c7bITvOqj9Y9rn15JvYP-17" target="c7bITvOqj9Y9rn15JvYP-23">
                    <mxGeometry relative="1" as="geometry">
                        <Array as="points">
                            <mxPoint x="250" y="333"/>
                        </Array>
                    </mxGeometry>
                </mxCell>
                <mxCell id="c7bITvOqj9Y9rn15JvYP-15" value="Faux" style="edgeLabel;html=1;align=center;verticalAlign=middle;resizable=0;points=[];" vertex="1" connectable="0" parent="c7bITvOqj9Y9rn15JvYP-14">
                    <mxGeometry x="-0.4986" y="-1" relative="1" as="geometry">
                        <mxPoint x="-5" y="1" as="offset"/>
                    </mxGeometry>
                </mxCell>
                <mxCell id="c7bITvOqj9Y9rn15JvYP-16" value="Vrai" style="edgeStyle=none;html=1;exitX=1;exitY=0.5;exitDx=0;exitDy=0;entryX=0.5;entryY=0;entryDx=0;entryDy=0;" edge="1" parent="c7bITvOqj9Y9rn15JvYP-1" source="c7bITvOqj9Y9rn15JvYP-17" target="c7bITvOqj9Y9rn15JvYP-12">
                    <mxGeometry x="-0.4909" relative="1" as="geometry">
                        <Array as="points">
                            <mxPoint x="550" y="333"/>
                        </Array>
                        <mxPoint x="560" y="383" as="targetPoint"/>
                        <mxPoint as="offset"/>
                    </mxGeometry>
                </mxCell>
                <mxCell id="c7bITvOqj9Y9rn15JvYP-17" value="nombre &amp;lt; 5 ?" style="rhombus;whiteSpace=wrap;html=1;" vertex="1" parent="c7bITvOqj9Y9rn15JvYP-1">
                    <mxGeometry x="359" y="293" width="80" height="80" as="geometry"/>
                </mxCell>
                <mxCell id="c7bITvOqj9Y9rn15JvYP-19" style="edgeStyle=none;html=1;exitX=1;exitY=0.5;exitDx=0;exitDy=0;entryX=0.5;entryY=0;entryDx=0;entryDy=0;" edge="1" parent="c7bITvOqj9Y9rn15JvYP-1" source="c7bITvOqj9Y9rn15JvYP-23" target="c7bITvOqj9Y9rn15JvYP-11">
                    <mxGeometry relative="1" as="geometry">
                        <Array as="points">
                            <mxPoint x="378" y="413"/>
                        </Array>
                    </mxGeometry>
                </mxCell>
                <mxCell id="c7bITvOqj9Y9rn15JvYP-20" value="Vrai" style="edgeLabel;html=1;align=center;verticalAlign=middle;resizable=0;points=[];" vertex="1" connectable="0" parent="c7bITvOqj9Y9rn15JvYP-19">
                    <mxGeometry x="-0.6869" y="-1" relative="1" as="geometry">
                        <mxPoint x="11" y="-1" as="offset"/>
                    </mxGeometry>
                </mxCell>
                <mxCell id="c7bITvOqj9Y9rn15JvYP-21" style="edgeStyle=none;html=1;exitX=0;exitY=0.5;exitDx=0;exitDy=0;entryX=0.5;entryY=0;entryDx=0;entryDy=0;" edge="1" parent="c7bITvOqj9Y9rn15JvYP-1" source="c7bITvOqj9Y9rn15JvYP-23" target="c7bITvOqj9Y9rn15JvYP-9">
                    <mxGeometry relative="1" as="geometry">
                        <Array as="points">
                            <mxPoint x="130" y="413"/>
                        </Array>
                    </mxGeometry>
                </mxCell>
                <mxCell id="c7bITvOqj9Y9rn15JvYP-22" value="Faux" style="edgeLabel;html=1;align=center;verticalAlign=middle;resizable=0;points=[];" vertex="1" connectable="0" parent="c7bITvOqj9Y9rn15JvYP-21">
                    <mxGeometry x="-0.5363" y="-2" relative="1" as="geometry">
                        <mxPoint as="offset"/>
                    </mxGeometry>
                </mxCell>
                <mxCell id="c7bITvOqj9Y9rn15JvYP-23" value="nombre &amp;lt;= 10 ?" style="rhombus;whiteSpace=wrap;html=1;" vertex="1" parent="c7bITvOqj9Y9rn15JvYP-1">
                    <mxGeometry x="200" y="373" width="99" height="80" as="geometry"/>
                </mxCell>
                <mxCell id="fYn33gSYtsliZ3DI4i0n-2" style="edgeStyle=none;html=1;exitX=0.5;exitY=1;exitDx=0;exitDy=0;entryX=0.5;entryY=0;entryDx=0;entryDy=0;" edge="1" parent="c7bITvOqj9Y9rn15JvYP-1" source="c7bITvOqj9Y9rn15JvYP-24" target="fYn33gSYtsliZ3DI4i0n-0">
                    <mxGeometry relative="1" as="geometry"/>
                </mxCell>
                <mxCell id="fYn33gSYtsliZ3DI4i0n-3" style="edgeStyle=none;html=1;exitX=0.5;exitY=1;exitDx=0;exitDy=0;entryX=0.5;entryY=0;entryDx=0;entryDy=0;" edge="1" parent="c7bITvOqj9Y9rn15JvYP-1" source="fYn33gSYtsliZ3DI4i0n-0" target="c7bITvOqj9Y9rn15JvYP-17">
                    <mxGeometry relative="1" as="geometry"/>
                </mxCell>
                <mxCell id="fYn33gSYtsliZ3DI4i0n-0" value="convertir nombre en entier" style="shape=process;whiteSpace=wrap;html=1;backgroundOutline=1;" vertex="1" parent="c7bITvOqj9Y9rn15JvYP-1">
                    <mxGeometry x="319" y="220" width="160" height="40" as="geometry"/>
                </mxCell>
                <mxCell id="fYn33gSYtsliZ3DI4i0n-1" value="Vrai" style="edgeStyle=none;html=1;exitX=1;exitY=0.5;exitDx=0;exitDy=0;entryX=0.5;entryY=0;entryDx=0;entryDy=0;" edge="1" parent="c7bITvOqj9Y9rn15JvYP-1" source="c7bITvOqj9Y9rn15JvYP-17" target="c7bITvOqj9Y9rn15JvYP-12">
                    <mxGeometry x="-0.4909" relative="1" as="geometry">
                        <Array as="points">
                            <mxPoint x="510" y="333"/>
                            <mxPoint x="550" y="333"/>
                        </Array>
                        <mxPoint x="439" y="333" as="sourcePoint"/>
                        <mxPoint x="552.5" y="383" as="targetPoint"/>
                        <mxPoint as="offset"/>
                    </mxGeometry>
                </mxCell>
                <mxCell id="c7bITvOqj9Y9rn15JvYP-24" value="LIRE nombre" style="shape=parallelogram;perimeter=parallelogramPerimeter;whiteSpace=wrap;html=1;fixedSize=1;" vertex="1" parent="c7bITvOqj9Y9rn15JvYP-1">
                    <mxGeometry x="321.5" y="150" width="155" height="40" as="geometry"/>
                </mxCell>
            </root>
        </mxGraphModel>
    </diagram>
    <diagram name="ordino3" id="SxlolJQkcnVfG3LB0PML">
        <mxGraphModel dx="984" dy="374" grid="1" gridSize="10" guides="1" tooltips="1" connect="1" arrows="1" fold="1" page="1" pageScale="1" pageWidth="827" pageHeight="1169" math="0" shadow="0">
            <root>
                <mxCell id="IFP4pOx9CHOEMzlSJvTO-0"/>
                <mxCell id="IFP4pOx9CHOEMzlSJvTO-1" parent="IFP4pOx9CHOEMzlSJvTO-0"/>
                <mxCell id="IFP4pOx9CHOEMzlSJvTO-3" value="FIN" style="ellipse;whiteSpace=wrap;html=1;" vertex="1" parent="IFP4pOx9CHOEMzlSJvTO-1">
                    <mxGeometry x="194" y="555" width="130" height="40" as="geometry"/>
                </mxCell>
                <mxCell id="IFP4pOx9CHOEMzlSJvTO-4" style="edgeStyle=none;html=1;exitX=0.5;exitY=1;exitDx=0;exitDy=0;entryX=0.5;entryY=0;entryDx=0;entryDy=0;" edge="1" parent="IFP4pOx9CHOEMzlSJvTO-1" source="IFP4pOx9CHOEMzlSJvTO-5" target="IFP4pOx9CHOEMzlSJvTO-7">
                    <mxGeometry relative="1" as="geometry"/>
                </mxCell>
                <mxCell id="IFP4pOx9CHOEMzlSJvTO-5" value="DÃ‰BUT" style="ellipse;whiteSpace=wrap;html=1;" vertex="1" parent="IFP4pOx9CHOEMzlSJvTO-1">
                    <mxGeometry x="309" y="20" width="180" height="30" as="geometry"/>
                </mxCell>
                <mxCell id="IFP4pOx9CHOEMzlSJvTO-6" style="edgeStyle=none;html=1;exitX=0.5;exitY=1;exitDx=0;exitDy=0;entryX=0.5;entryY=0;entryDx=0;entryDy=0;" edge="1" parent="IFP4pOx9CHOEMzlSJvTO-1" source="IFP4pOx9CHOEMzlSJvTO-7" target="IFP4pOx9CHOEMzlSJvTO-24">
                    <mxGeometry relative="1" as="geometry"/>
                </mxCell>
                <mxCell id="IFP4pOx9CHOEMzlSJvTO-7" value="AFFICHER &quot;Entrez la taux&quot;" style="shape=parallelogram;perimeter=parallelogramPerimeter;whiteSpace=wrap;html=1;fixedSize=1;" vertex="1" parent="IFP4pOx9CHOEMzlSJvTO-1">
                    <mxGeometry x="304" y="80" width="190" height="40" as="geometry"/>
                </mxCell>
                <mxCell id="IFP4pOx9CHOEMzlSJvTO-8" style="edgeStyle=none;html=1;exitX=0.5;exitY=1;exitDx=0;exitDy=0;entryX=0;entryY=0.5;entryDx=0;entryDy=0;" edge="1" parent="IFP4pOx9CHOEMzlSJvTO-1" target="IFP4pOx9CHOEMzlSJvTO-3">
                    <mxGeometry relative="1" as="geometry">
                        <mxPoint x="129.75" y="505" as="sourcePoint"/>
                    </mxGeometry>
                </mxCell>
                <mxCell id="IFP4pOx9CHOEMzlSJvTO-9" value="AFFICHER &quot;super!&quot;" style="shape=parallelogram;perimeter=parallelogramPerimeter;whiteSpace=wrap;html=1;fixedSize=1;" vertex="1" parent="IFP4pOx9CHOEMzlSJvTO-1">
                    <mxGeometry x="50" y="461" width="159.5" height="40" as="geometry"/>
                </mxCell>
                <mxCell id="IFP4pOx9CHOEMzlSJvTO-10" style="edgeStyle=none;html=1;exitX=0.5;exitY=1;exitDx=0;exitDy=0;entryX=0.5;entryY=1;entryDx=0;entryDy=0;" edge="1" parent="IFP4pOx9CHOEMzlSJvTO-1" target="IFP4pOx9CHOEMzlSJvTO-3">
                    <mxGeometry relative="1" as="geometry">
                        <mxPoint x="552.5" y="425" as="sourcePoint"/>
                        <Array as="points">
                            <mxPoint x="553" y="595"/>
                        </Array>
                    </mxGeometry>
                </mxCell>
                <mxCell id="IFP4pOx9CHOEMzlSJvTO-12" value="AFFICHER &quot;moyen&quot;" style="shape=parallelogram;perimeter=parallelogramPerimeter;whiteSpace=wrap;html=1;fixedSize=1;" vertex="1" parent="IFP4pOx9CHOEMzlSJvTO-1">
                    <mxGeometry x="299" y="465" width="157.5" height="40" as="geometry"/>
                </mxCell>
                <mxCell id="IFP4pOx9CHOEMzlSJvTO-11" value="AFFICHER &quot;faible&quot;" style="shape=parallelogram;perimeter=parallelogramPerimeter;whiteSpace=wrap;html=1;fixedSize=1;" vertex="1" parent="IFP4pOx9CHOEMzlSJvTO-1">
                    <mxGeometry x="469.5" y="382" width="166" height="40" as="geometry"/>
                </mxCell>
                <mxCell id="IFP4pOx9CHOEMzlSJvTO-13" style="edgeStyle=none;html=1;exitX=0.5;exitY=1;exitDx=0;exitDy=0;entryX=1;entryY=0.5;entryDx=0;entryDy=0;" edge="1" parent="IFP4pOx9CHOEMzlSJvTO-1" source="IFP4pOx9CHOEMzlSJvTO-12" target="IFP4pOx9CHOEMzlSJvTO-3">
                    <mxGeometry relative="1" as="geometry"/>
                </mxCell>
                <mxCell id="IFP4pOx9CHOEMzlSJvTO-14" style="edgeStyle=none;html=1;exitX=0;exitY=0.5;exitDx=0;exitDy=0;entryX=0.5;entryY=0;entryDx=0;entryDy=0;" edge="1" parent="IFP4pOx9CHOEMzlSJvTO-1" target="IFP4pOx9CHOEMzlSJvTO-23">
                    <mxGeometry relative="1" as="geometry">
                        <Array as="points">
                            <mxPoint x="259" y="335"/>
                        </Array>
                        <mxPoint x="359" y="335" as="sourcePoint"/>
                    </mxGeometry>
                </mxCell>
                <mxCell id="IFP4pOx9CHOEMzlSJvTO-15" value="Faux" style="edgeLabel;html=1;align=center;verticalAlign=middle;resizable=0;points=[];" vertex="1" connectable="0" parent="IFP4pOx9CHOEMzlSJvTO-14">
                    <mxGeometry x="-0.4986" y="-1" relative="1" as="geometry">
                        <mxPoint x="-5" y="1" as="offset"/>
                    </mxGeometry>
                </mxCell>
                <mxCell id="IFP4pOx9CHOEMzlSJvTO-16" value="Vrai" style="edgeStyle=none;html=1;exitX=1;exitY=0.5;exitDx=0;exitDy=0;entryX=0.5;entryY=0;entryDx=0;entryDy=0;" edge="1" parent="IFP4pOx9CHOEMzlSJvTO-1">
                    <mxGeometry x="-0.4909" relative="1" as="geometry">
                        <Array as="points">
                            <mxPoint x="550" y="335"/>
                        </Array>
                        <mxPoint x="439" y="335" as="sourcePoint"/>
                        <mxPoint x="552.5" y="385" as="targetPoint"/>
                        <mxPoint as="offset"/>
                    </mxGeometry>
                </mxCell>
                <mxCell id="IFP4pOx9CHOEMzlSJvTO-17" value="taux &amp;lt; 15 ?" style="rhombus;whiteSpace=wrap;html=1;" vertex="1" parent="IFP4pOx9CHOEMzlSJvTO-1">
                    <mxGeometry x="359" y="292" width="80" height="80" as="geometry"/>
                </mxCell>
                <mxCell id="IFP4pOx9CHOEMzlSJvTO-19" style="edgeStyle=none;html=1;exitX=1;exitY=0.5;exitDx=0;exitDy=0;entryX=0.5;entryY=0;entryDx=0;entryDy=0;" edge="1" parent="IFP4pOx9CHOEMzlSJvTO-1" source="IFP4pOx9CHOEMzlSJvTO-23" target="IFP4pOx9CHOEMzlSJvTO-12">
                    <mxGeometry relative="1" as="geometry">
                        <Array as="points">
                            <mxPoint x="378" y="415"/>
                        </Array>
                    </mxGeometry>
                </mxCell>
                <mxCell id="IFP4pOx9CHOEMzlSJvTO-20" value="Vrai" style="edgeLabel;html=1;align=center;verticalAlign=middle;resizable=0;points=[];" vertex="1" connectable="0" parent="IFP4pOx9CHOEMzlSJvTO-19">
                    <mxGeometry x="-0.6869" y="-1" relative="1" as="geometry">
                        <mxPoint x="11" y="-1" as="offset"/>
                    </mxGeometry>
                </mxCell>
                <mxCell id="IFP4pOx9CHOEMzlSJvTO-21" style="edgeStyle=none;html=1;exitX=0;exitY=0.5;exitDx=0;exitDy=0;entryX=0.5;entryY=0;entryDx=0;entryDy=0;" edge="1" parent="IFP4pOx9CHOEMzlSJvTO-1" source="IFP4pOx9CHOEMzlSJvTO-23">
                    <mxGeometry relative="1" as="geometry">
                        <mxPoint x="129.75" y="465" as="targetPoint"/>
                        <Array as="points">
                            <mxPoint x="130" y="415"/>
                        </Array>
                    </mxGeometry>
                </mxCell>
                <mxCell id="IFP4pOx9CHOEMzlSJvTO-22" value="Faux" style="edgeLabel;html=1;align=center;verticalAlign=middle;resizable=0;points=[];" vertex="1" connectable="0" parent="IFP4pOx9CHOEMzlSJvTO-21">
                    <mxGeometry x="-0.5363" y="-2" relative="1" as="geometry">
                        <mxPoint as="offset"/>
                    </mxGeometry>
                </mxCell>
                <mxCell id="IFP4pOx9CHOEMzlSJvTO-23" value="note &amp;lt; 20 ?" style="rhombus;whiteSpace=wrap;html=1;" vertex="1" parent="IFP4pOx9CHOEMzlSJvTO-1">
                    <mxGeometry x="219" y="375" width="80" height="80" as="geometry"/>
                </mxCell>
                <mxCell id="7GsOfpqaNWo19ZcmbfA9-1" style="edgeStyle=none;html=1;exitX=0.5;exitY=1;exitDx=0;exitDy=0;" edge="1" parent="IFP4pOx9CHOEMzlSJvTO-1" source="IFP4pOx9CHOEMzlSJvTO-24" target="7GsOfpqaNWo19ZcmbfA9-0">
                    <mxGeometry relative="1" as="geometry"/>
                </mxCell>
                <mxCell id="IFP4pOx9CHOEMzlSJvTO-24" value="LIRE taux" style="shape=parallelogram;perimeter=parallelogramPerimeter;whiteSpace=wrap;html=1;fixedSize=1;" vertex="1" parent="IFP4pOx9CHOEMzlSJvTO-1">
                    <mxGeometry x="321.5" y="150" width="155" height="40" as="geometry"/>
                </mxCell>
                <mxCell id="7GsOfpqaNWo19ZcmbfA9-2" style="edgeStyle=none;html=1;exitX=0.5;exitY=1;exitDx=0;exitDy=0;entryX=0.5;entryY=0;entryDx=0;entryDy=0;" edge="1" parent="IFP4pOx9CHOEMzlSJvTO-1" source="7GsOfpqaNWo19ZcmbfA9-0" target="IFP4pOx9CHOEMzlSJvTO-17">
                    <mxGeometry relative="1" as="geometry"/>
                </mxCell>
                <mxCell id="7GsOfpqaNWo19ZcmbfA9-0" value="convertir taux en entier" style="shape=process;whiteSpace=wrap;html=1;backgroundOutline=1;" vertex="1" parent="IFP4pOx9CHOEMzlSJvTO-1">
                    <mxGeometry x="320" y="221" width="160" height="40" as="geometry"/>
                </mxCell>
            </root>
        </mxGraphModel>
    </diagram>
    <diagram name="ordino2" id="iWsp2SdJvov0uB3npExQ">
        <mxGraphModel dx="984" dy="374" grid="1" gridSize="10" guides="1" tooltips="1" connect="1" arrows="1" fold="1" page="1" pageScale="1" pageWidth="827" pageHeight="1169" math="0" shadow="0">
            <root>
                <mxCell id="IEQo9HQV0TFGNavdOPeZ-0"/>
                <mxCell id="IEQo9HQV0TFGNavdOPeZ-1" parent="IEQo9HQV0TFGNavdOPeZ-0"/>
                <mxCell id="IEQo9HQV0TFGNavdOPeZ-3" value="FIN" style="ellipse;whiteSpace=wrap;html=1;" vertex="1" parent="IEQo9HQV0TFGNavdOPeZ-1">
                    <mxGeometry x="194" y="533" width="130" height="40" as="geometry"/>
                </mxCell>
                <mxCell id="IEQo9HQV0TFGNavdOPeZ-4" style="edgeStyle=none;html=1;exitX=0.5;exitY=1;exitDx=0;exitDy=0;entryX=0.5;entryY=0;entryDx=0;entryDy=0;" edge="1" parent="IEQo9HQV0TFGNavdOPeZ-1" source="IEQo9HQV0TFGNavdOPeZ-5" target="IEQo9HQV0TFGNavdOPeZ-7">
                    <mxGeometry relative="1" as="geometry"/>
                </mxCell>
                <mxCell id="IEQo9HQV0TFGNavdOPeZ-5" value="DÃ‰BUT" style="ellipse;whiteSpace=wrap;html=1;" vertex="1" parent="IEQo9HQV0TFGNavdOPeZ-1">
                    <mxGeometry x="309" y="20" width="180" height="30" as="geometry"/>
                </mxCell>
                <mxCell id="IEQo9HQV0TFGNavdOPeZ-6" style="edgeStyle=none;html=1;exitX=0.5;exitY=1;exitDx=0;exitDy=0;entryX=0.5;entryY=0;entryDx=0;entryDy=0;" edge="1" parent="IEQo9HQV0TFGNavdOPeZ-1" source="IEQo9HQV0TFGNavdOPeZ-7" target="IEQo9HQV0TFGNavdOPeZ-19">
                    <mxGeometry relative="1" as="geometry"/>
                </mxCell>
                <mxCell id="IEQo9HQV0TFGNavdOPeZ-7" value="AFFICHER &quot;Entrez la note&quot;" style="shape=parallelogram;perimeter=parallelogramPerimeter;whiteSpace=wrap;html=1;fixedSize=1;" vertex="1" parent="IEQo9HQV0TFGNavdOPeZ-1">
                    <mxGeometry x="304" y="80" width="190" height="40" as="geometry"/>
                </mxCell>
                <mxCell id="IEQo9HQV0TFGNavdOPeZ-8" style="edgeStyle=none;html=1;entryX=0;entryY=0.5;entryDx=0;entryDy=0;exitX=0.447;exitY=1.036;exitDx=0;exitDy=0;exitPerimeter=0;" edge="1" parent="IEQo9HQV0TFGNavdOPeZ-1" source="IEQo9HQV0TFGNavdOPeZ-9" target="IEQo9HQV0TFGNavdOPeZ-3">
                    <mxGeometry relative="1" as="geometry">
                        <mxPoint x="130" y="480" as="sourcePoint"/>
                    </mxGeometry>
                </mxCell>
                <mxCell id="IEQo9HQV0TFGNavdOPeZ-9" value="AFFICHER &quot;Ã©chec!&quot;" style="shape=parallelogram;perimeter=parallelogramPerimeter;whiteSpace=wrap;html=1;fixedSize=1;" vertex="1" parent="IEQo9HQV0TFGNavdOPeZ-1">
                    <mxGeometry x="40" y="443" width="159.5" height="40" as="geometry"/>
                </mxCell>
                <mxCell id="IEQo9HQV0TFGNavdOPeZ-10" style="edgeStyle=none;html=1;exitX=0.5;exitY=1;exitDx=0;exitDy=0;entryX=0.5;entryY=1;entryDx=0;entryDy=0;" edge="1" parent="IEQo9HQV0TFGNavdOPeZ-1" source="IEQo9HQV0TFGNavdOPeZ-11" target="IEQo9HQV0TFGNavdOPeZ-3">
                    <mxGeometry relative="1" as="geometry">
                        <Array as="points">
                            <mxPoint x="553" y="573"/>
                        </Array>
                    </mxGeometry>
                </mxCell>
                <mxCell id="IEQo9HQV0TFGNavdOPeZ-11" value="AFFICHER &quot;rÃ©ussi&quot;" style="shape=parallelogram;perimeter=parallelogramPerimeter;whiteSpace=wrap;html=1;fixedSize=1;" vertex="1" parent="IEQo9HQV0TFGNavdOPeZ-1">
                    <mxGeometry x="469.5" y="363" width="166" height="40" as="geometry"/>
                </mxCell>
                <mxCell id="IEQo9HQV0TFGNavdOPeZ-13" value="AFFICHER &quot;passable&quot;" style="shape=parallelogram;perimeter=parallelogramPerimeter;whiteSpace=wrap;html=1;fixedSize=1;" vertex="1" parent="IEQo9HQV0TFGNavdOPeZ-1">
                    <mxGeometry x="299" y="443" width="157.5" height="40" as="geometry"/>
                </mxCell>
                <mxCell id="IEQo9HQV0TFGNavdOPeZ-12" style="edgeStyle=none;html=1;exitX=0.5;exitY=1;exitDx=0;exitDy=0;entryX=1;entryY=0.5;entryDx=0;entryDy=0;" edge="1" parent="IEQo9HQV0TFGNavdOPeZ-1" source="IEQo9HQV0TFGNavdOPeZ-13" target="IEQo9HQV0TFGNavdOPeZ-3">
                    <mxGeometry relative="1" as="geometry"/>
                </mxCell>
                <mxCell id="IEQo9HQV0TFGNavdOPeZ-14" style="edgeStyle=none;html=1;exitX=0;exitY=0.5;exitDx=0;exitDy=0;entryX=0.5;entryY=0;entryDx=0;entryDy=0;" edge="1" parent="IEQo9HQV0TFGNavdOPeZ-1" source="IEQo9HQV0TFGNavdOPeZ-17" target="IEQo9HQV0TFGNavdOPeZ-24">
                    <mxGeometry relative="1" as="geometry">
                        <Array as="points">
                            <mxPoint x="259" y="313"/>
                        </Array>
                    </mxGeometry>
                </mxCell>
                <mxCell id="IEQo9HQV0TFGNavdOPeZ-15" value="Faux" style="edgeLabel;html=1;align=center;verticalAlign=middle;resizable=0;points=[];" vertex="1" connectable="0" parent="IEQo9HQV0TFGNavdOPeZ-14">
                    <mxGeometry x="-0.4986" y="-1" relative="1" as="geometry">
                        <mxPoint x="-5" y="1" as="offset"/>
                    </mxGeometry>
                </mxCell>
                <mxCell id="IEQo9HQV0TFGNavdOPeZ-16" value="Vrai" style="edgeStyle=none;html=1;exitX=1;exitY=0.5;exitDx=0;exitDy=0;entryX=0.5;entryY=0;entryDx=0;entryDy=0;" edge="1" parent="IEQo9HQV0TFGNavdOPeZ-1" source="IEQo9HQV0TFGNavdOPeZ-17" target="IEQo9HQV0TFGNavdOPeZ-11">
                    <mxGeometry x="-0.4909" relative="1" as="geometry">
                        <Array as="points">
                            <mxPoint x="550" y="313"/>
                        </Array>
                        <mxPoint x="560" y="363" as="targetPoint"/>
                        <mxPoint as="offset"/>
                    </mxGeometry>
                </mxCell>
                <mxCell id="IEQo9HQV0TFGNavdOPeZ-17" value="note &amp;gt;= 60 ?" style="rhombus;whiteSpace=wrap;html=1;" vertex="1" parent="IEQo9HQV0TFGNavdOPeZ-1">
                    <mxGeometry x="359" y="273" width="80" height="80" as="geometry"/>
                </mxCell>
                <mxCell id="IEQo9HQV0TFGNavdOPeZ-20" style="edgeStyle=none;html=1;exitX=1;exitY=0.5;exitDx=0;exitDy=0;entryX=0.5;entryY=0;entryDx=0;entryDy=0;" edge="1" parent="IEQo9HQV0TFGNavdOPeZ-1" source="IEQo9HQV0TFGNavdOPeZ-24" target="IEQo9HQV0TFGNavdOPeZ-13">
                    <mxGeometry relative="1" as="geometry">
                        <Array as="points">
                            <mxPoint x="378" y="393"/>
                        </Array>
                    </mxGeometry>
                </mxCell>
                <mxCell id="IEQo9HQV0TFGNavdOPeZ-21" value="Vrai" style="edgeLabel;html=1;align=center;verticalAlign=middle;resizable=0;points=[];" vertex="1" connectable="0" parent="IEQo9HQV0TFGNavdOPeZ-20">
                    <mxGeometry x="-0.6869" y="-1" relative="1" as="geometry">
                        <mxPoint x="11" y="-1" as="offset"/>
                    </mxGeometry>
                </mxCell>
                <mxCell id="IEQo9HQV0TFGNavdOPeZ-22" style="edgeStyle=none;html=1;exitX=0;exitY=0.5;exitDx=0;exitDy=0;entryX=0.562;entryY=0.022;entryDx=0;entryDy=0;entryPerimeter=0;" edge="1" parent="IEQo9HQV0TFGNavdOPeZ-1" source="IEQo9HQV0TFGNavdOPeZ-24" target="IEQo9HQV0TFGNavdOPeZ-9">
                    <mxGeometry relative="1" as="geometry">
                        <mxPoint x="130" y="440" as="targetPoint"/>
                        <Array as="points">
                            <mxPoint x="130" y="393"/>
                        </Array>
                    </mxGeometry>
                </mxCell>
                <mxCell id="IEQo9HQV0TFGNavdOPeZ-23" value="Faux" style="edgeLabel;html=1;align=center;verticalAlign=middle;resizable=0;points=[];" vertex="1" connectable="0" parent="IEQo9HQV0TFGNavdOPeZ-22">
                    <mxGeometry x="-0.5363" y="-2" relative="1" as="geometry">
                        <mxPoint as="offset"/>
                    </mxGeometry>
                </mxCell>
                <mxCell id="IEQo9HQV0TFGNavdOPeZ-24" value="note &amp;gt; 50 ?" style="rhombus;whiteSpace=wrap;html=1;" vertex="1" parent="IEQo9HQV0TFGNavdOPeZ-1">
                    <mxGeometry x="219" y="353" width="80" height="80" as="geometry"/>
                </mxCell>
                <mxCell id="ZwcsbISoVJR2oYlZX6os-0" style="edgeStyle=none;html=1;exitX=0.5;exitY=1;exitDx=0;exitDy=0;entryX=0.5;entryY=0;entryDx=0;entryDy=0;" edge="1" parent="IEQo9HQV0TFGNavdOPeZ-1" source="IEQo9HQV0TFGNavdOPeZ-19" target="jhB4lVCG1zkAv8YjnC30-0">
                    <mxGeometry relative="1" as="geometry"/>
                </mxCell>
                <mxCell id="IEQo9HQV0TFGNavdOPeZ-19" value="LIRE note" style="shape=parallelogram;perimeter=parallelogramPerimeter;whiteSpace=wrap;html=1;fixedSize=1;" vertex="1" parent="IEQo9HQV0TFGNavdOPeZ-1">
                    <mxGeometry x="321.5" y="150" width="155" height="40" as="geometry"/>
                </mxCell>
                <mxCell id="ZwcsbISoVJR2oYlZX6os-1" style="edgeStyle=none;html=1;exitX=0.5;exitY=1;exitDx=0;exitDy=0;" edge="1" parent="IEQo9HQV0TFGNavdOPeZ-1" source="jhB4lVCG1zkAv8YjnC30-0" target="IEQo9HQV0TFGNavdOPeZ-17">
                    <mxGeometry relative="1" as="geometry"/>
                </mxCell>
                <mxCell id="jhB4lVCG1zkAv8YjnC30-0" value="convertir note en entier" style="shape=process;whiteSpace=wrap;html=1;backgroundOutline=1;" vertex="1" parent="IEQo9HQV0TFGNavdOPeZ-1">
                    <mxGeometry x="319" y="210" width="160" height="40" as="geometry"/>
                </mxCell>
            </root>
        </mxGraphModel>
    </diagram>
    <diagram id="fGqZPj-JKoe1sATkusCu" name="ordino1">
        <mxGraphModel dx="1158" dy="440" grid="1" gridSize="10" guides="1" tooltips="1" connect="1" arrows="1" fold="1" page="1" pageScale="1" pageWidth="827" pageHeight="1169" math="0" shadow="0">
            <root>
                <mxCell id="0"/>
                <mxCell id="1" parent="0"/>
                <mxCell id="p4F22SCiDtNvkDlrsIgi-1" value="FIN" style="ellipse;whiteSpace=wrap;html=1;" vertex="1" parent="1">
                    <mxGeometry x="194" y="560" width="130" height="40" as="geometry"/>
                </mxCell>
                <mxCell id="p4F22SCiDtNvkDlrsIgi-10" style="edgeStyle=none;html=1;exitX=0.5;exitY=1;exitDx=0;exitDy=0;entryX=0.5;entryY=0;entryDx=0;entryDy=0;" edge="1" parent="1" source="p4F22SCiDtNvkDlrsIgi-2" target="p4F22SCiDtNvkDlrsIgi-4">
                    <mxGeometry relative="1" as="geometry"/>
                </mxCell>
                <mxCell id="p4F22SCiDtNvkDlrsIgi-2" value="DÃ‰BUT" style="ellipse;whiteSpace=wrap;html=1;" vertex="1" parent="1">
                    <mxGeometry x="309" y="20" width="180" height="30" as="geometry"/>
                </mxCell>
                <mxCell id="p4F22SCiDtNvkDlrsIgi-11" style="edgeStyle=none;html=1;exitX=0.5;exitY=1;exitDx=0;exitDy=0;entryX=0.5;entryY=0;entryDx=0;entryDy=0;" edge="1" parent="1" source="p4F22SCiDtNvkDlrsIgi-4" target="p4F22SCiDtNvkDlrsIgi-9">
                    <mxGeometry relative="1" as="geometry"/>
                </mxCell>
                <mxCell id="p4F22SCiDtNvkDlrsIgi-4" value="AFFICHER &quot;Entrez le pH&quot;" style="shape=parallelogram;perimeter=parallelogramPerimeter;whiteSpace=wrap;html=1;fixedSize=1;" vertex="1" parent="1">
                    <mxGeometry x="304" y="80" width="190" height="40" as="geometry"/>
                </mxCell>
                <mxCell id="e1OoWmJWvWNVcEpm36n9-11" style="edgeStyle=none;html=1;exitX=0.5;exitY=1;exitDx=0;exitDy=0;entryX=0;entryY=0.5;entryDx=0;entryDy=0;" edge="1" parent="1" source="p4F22SCiDtNvkDlrsIgi-5" target="p4F22SCiDtNvkDlrsIgi-1">
                    <mxGeometry relative="1" as="geometry"/>
                </mxCell>
                <mxCell id="p4F22SCiDtNvkDlrsIgi-5" value="AFFICHER &quot;pH acide&quot;" style="shape=parallelogram;perimeter=parallelogramPerimeter;whiteSpace=wrap;html=1;fixedSize=1;" vertex="1" parent="1">
                    <mxGeometry x="50" y="470" width="159.5" height="40" as="geometry"/>
                </mxCell>
                <mxCell id="e1OoWmJWvWNVcEpm36n9-12" style="edgeStyle=none;html=1;exitX=0.5;exitY=1;exitDx=0;exitDy=0;entryX=0.5;entryY=1;entryDx=0;entryDy=0;" edge="1" parent="1" source="p4F22SCiDtNvkDlrsIgi-6" target="p4F22SCiDtNvkDlrsIgi-1">
                    <mxGeometry relative="1" as="geometry">
                        <Array as="points">
                            <mxPoint x="553" y="600"/>
                        </Array>
                    </mxGeometry>
                </mxCell>
                <mxCell id="p4F22SCiDtNvkDlrsIgi-6" value="AFFICHER &quot;pH basique&quot;" style="shape=parallelogram;perimeter=parallelogramPerimeter;whiteSpace=wrap;html=1;fixedSize=1;" vertex="1" parent="1">
                    <mxGeometry x="469.5" y="390" width="166" height="40" as="geometry"/>
                </mxCell>
                <mxCell id="e1OoWmJWvWNVcEpm36n9-10" style="edgeStyle=none;html=1;exitX=0.5;exitY=1;exitDx=0;exitDy=0;entryX=1;entryY=0.5;entryDx=0;entryDy=0;" edge="1" parent="1" source="p4F22SCiDtNvkDlrsIgi-7" target="p4F22SCiDtNvkDlrsIgi-1">
                    <mxGeometry relative="1" as="geometry"/>
                </mxCell>
                <mxCell id="p4F22SCiDtNvkDlrsIgi-7" value="AFFICHER &quot;pH neutre&quot;" style="shape=parallelogram;perimeter=parallelogramPerimeter;whiteSpace=wrap;html=1;fixedSize=1;" vertex="1" parent="1">
                    <mxGeometry x="299" y="470" width="157.5" height="40" as="geometry"/>
                </mxCell>
                <mxCell id="p4F22SCiDtNvkDlrsIgi-15" style="edgeStyle=none;html=1;exitX=0;exitY=0.5;exitDx=0;exitDy=0;entryX=0.5;entryY=0;entryDx=0;entryDy=0;" edge="1" parent="1" source="p4F22SCiDtNvkDlrsIgi-8" target="p4F22SCiDtNvkDlrsIgi-14">
                    <mxGeometry relative="1" as="geometry">
                        <Array as="points">
                            <mxPoint x="259" y="340"/>
                        </Array>
                    </mxGeometry>
                </mxCell>
                <mxCell id="e1OoWmJWvWNVcEpm36n9-6" value="Faux" style="edgeLabel;html=1;align=center;verticalAlign=middle;resizable=0;points=[];" vertex="1" connectable="0" parent="p4F22SCiDtNvkDlrsIgi-15">
                    <mxGeometry x="-0.4986" y="-1" relative="1" as="geometry">
                        <mxPoint x="-5" y="1" as="offset"/>
                    </mxGeometry>
                </mxCell>
                <mxCell id="p4F22SCiDtNvkDlrsIgi-16" value="Vrai" style="edgeStyle=none;html=1;exitX=1;exitY=0.5;exitDx=0;exitDy=0;entryX=0.5;entryY=0;entryDx=0;entryDy=0;" edge="1" parent="1" source="p4F22SCiDtNvkDlrsIgi-8" target="p4F22SCiDtNvkDlrsIgi-6">
                    <mxGeometry x="-0.5159" relative="1" as="geometry">
                        <Array as="points">
                            <mxPoint x="553" y="340"/>
                        </Array>
                        <mxPoint as="offset"/>
                    </mxGeometry>
                </mxCell>
                <mxCell id="p4F22SCiDtNvkDlrsIgi-8" value="pH &amp;gt; 7 ?" style="rhombus;whiteSpace=wrap;html=1;" vertex="1" parent="1">
                    <mxGeometry x="359" y="300" width="80" height="80" as="geometry"/>
                </mxCell>
                <mxCell id="tOHVwZjKo-m4ubRHq-TT-2" style="edgeStyle=none;html=1;exitX=0.5;exitY=1;exitDx=0;exitDy=0;entryX=0.5;entryY=0;entryDx=0;entryDy=0;" edge="1" parent="1" source="p4F22SCiDtNvkDlrsIgi-9" target="tOHVwZjKo-m4ubRHq-TT-1">
                    <mxGeometry relative="1" as="geometry"/>
                </mxCell>
                <mxCell id="p4F22SCiDtNvkDlrsIgi-9" value="LIRE pH&amp;nbsp;" style="shape=parallelogram;perimeter=parallelogramPerimeter;whiteSpace=wrap;html=1;fixedSize=1;" vertex="1" parent="1">
                    <mxGeometry x="321.5" y="150" width="155" height="40" as="geometry"/>
                </mxCell>
                <mxCell id="p4F22SCiDtNvkDlrsIgi-18" style="edgeStyle=none;html=1;exitX=1;exitY=0.5;exitDx=0;exitDy=0;entryX=0.5;entryY=0;entryDx=0;entryDy=0;" edge="1" parent="1" source="p4F22SCiDtNvkDlrsIgi-14" target="p4F22SCiDtNvkDlrsIgi-7">
                    <mxGeometry relative="1" as="geometry">
                        <Array as="points">
                            <mxPoint x="378" y="420"/>
                        </Array>
                    </mxGeometry>
                </mxCell>
                <mxCell id="e1OoWmJWvWNVcEpm36n9-7" value="Vrai" style="edgeLabel;html=1;align=center;verticalAlign=middle;resizable=0;points=[];" vertex="1" connectable="0" parent="p4F22SCiDtNvkDlrsIgi-18">
                    <mxGeometry x="-0.6869" y="-1" relative="1" as="geometry">
                        <mxPoint x="11" y="-1" as="offset"/>
                    </mxGeometry>
                </mxCell>
                <mxCell id="e1OoWmJWvWNVcEpm36n9-8" style="edgeStyle=none;html=1;exitX=0;exitY=0.5;exitDx=0;exitDy=0;entryX=0.5;entryY=0;entryDx=0;entryDy=0;" edge="1" parent="1" source="p4F22SCiDtNvkDlrsIgi-14" target="p4F22SCiDtNvkDlrsIgi-5">
                    <mxGeometry relative="1" as="geometry">
                        <Array as="points">
                            <mxPoint x="130" y="420"/>
                        </Array>
                    </mxGeometry>
                </mxCell>
                <mxCell id="e1OoWmJWvWNVcEpm36n9-9" value="Faux" style="edgeLabel;html=1;align=center;verticalAlign=middle;resizable=0;points=[];" vertex="1" connectable="0" parent="e1OoWmJWvWNVcEpm36n9-8">
                    <mxGeometry x="-0.5363" y="-2" relative="1" as="geometry">
                        <mxPoint as="offset"/>
                    </mxGeometry>
                </mxCell>
                <mxCell id="p4F22SCiDtNvkDlrsIgi-14" value="pH == 7 ?" style="rhombus;whiteSpace=wrap;html=1;" vertex="1" parent="1">
                    <mxGeometry x="219" y="380" width="80" height="80" as="geometry"/>
                </mxCell>
                <mxCell id="tOHVwZjKo-m4ubRHq-TT-3" style="edgeStyle=none;html=1;exitX=0.5;exitY=1;exitDx=0;exitDy=0;entryX=0.5;entryY=0;entryDx=0;entryDy=0;" edge="1" parent="1" source="tOHVwZjKo-m4ubRHq-TT-1" target="p4F22SCiDtNvkDlrsIgi-8">
                    <mxGeometry relative="1" as="geometry"/>
                </mxCell>
                <mxCell id="tOHVwZjKo-m4ubRHq-TT-1" value="convertir pH en entier" style="shape=process;whiteSpace=wrap;html=1;backgroundOutline=1;" vertex="1" parent="1">
                    <mxGeometry x="319" y="225" width="160" height="40" as="geometry"/>
                </mxCell>
            </root>
        </mxGraphModel>
    </diagram>
    <diagram name="fond-ordino4" id="2_a5fLQN8MS8aKYdYs04">
        <mxGraphModel dx="984" dy="374" grid="1" gridSize="10" guides="1" tooltips="1" connect="1" arrows="1" fold="1" page="1" pageScale="1" pageWidth="827" pageHeight="1169" math="0" shadow="0">
            <root>
                <mxCell id="B5zKuTQyoC2QHCvMCzD--0"/>
                <mxCell id="B5zKuTQyoC2QHCvMCzD--1" parent="B5zKuTQyoC2QHCvMCzD--0"/>
                <mxCell id="B5zKuTQyoC2QHCvMCzD--3" value="FIN" style="ellipse;whiteSpace=wrap;html=1;" vertex="1" parent="B5zKuTQyoC2QHCvMCzD--1">
                    <mxGeometry x="194" y="553" width="130" height="40" as="geometry"/>
                </mxCell>
                <mxCell id="B5zKuTQyoC2QHCvMCzD--4" style="edgeStyle=none;html=1;exitX=0.5;exitY=1;exitDx=0;exitDy=0;entryX=0.5;entryY=0;entryDx=0;entryDy=0;" edge="1" parent="B5zKuTQyoC2QHCvMCzD--1" source="B5zKuTQyoC2QHCvMCzD--5" target="B5zKuTQyoC2QHCvMCzD--7">
                    <mxGeometry relative="1" as="geometry"/>
                </mxCell>
                <mxCell id="B5zKuTQyoC2QHCvMCzD--5" value="DÃ‰BUT" style="ellipse;whiteSpace=wrap;html=1;" vertex="1" parent="B5zKuTQyoC2QHCvMCzD--1">
                    <mxGeometry x="309" y="20" width="180" height="30" as="geometry"/>
                </mxCell>
                <mxCell id="B5zKuTQyoC2QHCvMCzD--6" style="edgeStyle=none;html=1;exitX=0.5;exitY=1;exitDx=0;exitDy=0;entryX=0.5;entryY=0;entryDx=0;entryDy=0;" edge="1" parent="B5zKuTQyoC2QHCvMCzD--1" source="B5zKuTQyoC2QHCvMCzD--7" target="B5zKuTQyoC2QHCvMCzD--27">
                    <mxGeometry relative="1" as="geometry"/>
                </mxCell>
                <mxCell id="B5zKuTQyoC2QHCvMCzD--7" value="AFFICHER &quot;Entrez un nombre&quot;" style="shape=parallelogram;perimeter=parallelogramPerimeter;whiteSpace=wrap;html=1;fixedSize=1;" vertex="1" parent="B5zKuTQyoC2QHCvMCzD--1">
                    <mxGeometry x="304" y="80" width="190" height="40" as="geometry"/>
                </mxCell>
                <mxCell id="B5zKuTQyoC2QHCvMCzD--8" style="edgeStyle=none;html=1;exitX=0.5;exitY=1;exitDx=0;exitDy=0;entryX=0;entryY=0.5;entryDx=0;entryDy=0;" edge="1" parent="B5zKuTQyoC2QHCvMCzD--1" target="B5zKuTQyoC2QHCvMCzD--3">
                    <mxGeometry relative="1" as="geometry">
                        <mxPoint x="129.75" y="503" as="sourcePoint"/>
                    </mxGeometry>
                </mxCell>
                <mxCell id="B5zKuTQyoC2QHCvMCzD--10" style="edgeStyle=none;html=1;exitX=0.5;exitY=1;exitDx=0;exitDy=0;entryX=0.5;entryY=1;entryDx=0;entryDy=0;" edge="1" parent="B5zKuTQyoC2QHCvMCzD--1" target="B5zKuTQyoC2QHCvMCzD--3">
                    <mxGeometry relative="1" as="geometry">
                        <mxPoint x="552.5" y="423" as="sourcePoint"/>
                        <Array as="points">
                            <mxPoint x="553" y="593"/>
                        </Array>
                    </mxGeometry>
                </mxCell>
                <mxCell id="B5zKuTQyoC2QHCvMCzD--13" style="edgeStyle=none;html=1;exitX=0.5;exitY=1;exitDx=0;exitDy=0;entryX=1;entryY=0.5;entryDx=0;entryDy=0;" edge="1" parent="B5zKuTQyoC2QHCvMCzD--1" target="B5zKuTQyoC2QHCvMCzD--3">
                    <mxGeometry relative="1" as="geometry">
                        <mxPoint x="377.75" y="503" as="sourcePoint"/>
                    </mxGeometry>
                </mxCell>
                <mxCell id="B5zKuTQyoC2QHCvMCzD--14" style="edgeStyle=none;html=1;exitX=0;exitY=0.5;exitDx=0;exitDy=0;entryX=0.5;entryY=0;entryDx=0;entryDy=0;" edge="1" parent="B5zKuTQyoC2QHCvMCzD--1">
                    <mxGeometry relative="1" as="geometry">
                        <Array as="points">
                            <mxPoint x="250" y="333"/>
                        </Array>
                        <mxPoint x="359" y="333" as="sourcePoint"/>
                        <mxPoint x="249.5" y="373" as="targetPoint"/>
                    </mxGeometry>
                </mxCell>
                <mxCell id="B5zKuTQyoC2QHCvMCzD--15" value="Faux" style="edgeLabel;html=1;align=center;verticalAlign=middle;resizable=0;points=[];" vertex="1" connectable="0" parent="B5zKuTQyoC2QHCvMCzD--14">
                    <mxGeometry x="-0.4986" y="-1" relative="1" as="geometry">
                        <mxPoint x="-5" y="1" as="offset"/>
                    </mxGeometry>
                </mxCell>
                <mxCell id="B5zKuTQyoC2QHCvMCzD--16" value="Vrai" style="edgeStyle=none;html=1;exitX=1;exitY=0.5;exitDx=0;exitDy=0;entryX=0.5;entryY=0;entryDx=0;entryDy=0;" edge="1" parent="B5zKuTQyoC2QHCvMCzD--1">
                    <mxGeometry x="-0.4909" relative="1" as="geometry">
                        <Array as="points">
                            <mxPoint x="550" y="333"/>
                        </Array>
                        <mxPoint x="439" y="333" as="sourcePoint"/>
                        <mxPoint x="552.5" y="383" as="targetPoint"/>
                        <mxPoint as="offset"/>
                    </mxGeometry>
                </mxCell>
                <mxCell id="B5zKuTQyoC2QHCvMCzD--18" style="edgeStyle=none;html=1;exitX=1;exitY=0.5;exitDx=0;exitDy=0;entryX=0.5;entryY=0;entryDx=0;entryDy=0;" edge="1" parent="B5zKuTQyoC2QHCvMCzD--1">
                    <mxGeometry relative="1" as="geometry">
                        <Array as="points">
                            <mxPoint x="378" y="413"/>
                        </Array>
                        <mxPoint x="299" y="413" as="sourcePoint"/>
                        <mxPoint x="377.75" y="463" as="targetPoint"/>
                    </mxGeometry>
                </mxCell>
                <mxCell id="B5zKuTQyoC2QHCvMCzD--19" value="Vrai" style="edgeLabel;html=1;align=center;verticalAlign=middle;resizable=0;points=[];" vertex="1" connectable="0" parent="B5zKuTQyoC2QHCvMCzD--18">
                    <mxGeometry x="-0.6869" y="-1" relative="1" as="geometry">
                        <mxPoint x="11" y="-1" as="offset"/>
                    </mxGeometry>
                </mxCell>
                <mxCell id="B5zKuTQyoC2QHCvMCzD--20" style="edgeStyle=none;html=1;exitX=0;exitY=0.5;exitDx=0;exitDy=0;entryX=0.5;entryY=0;entryDx=0;entryDy=0;" edge="1" parent="B5zKuTQyoC2QHCvMCzD--1">
                    <mxGeometry relative="1" as="geometry">
                        <mxPoint x="200" y="413" as="sourcePoint"/>
                        <mxPoint x="129.75" y="463" as="targetPoint"/>
                        <Array as="points">
                            <mxPoint x="130" y="413"/>
                        </Array>
                    </mxGeometry>
                </mxCell>
                <mxCell id="B5zKuTQyoC2QHCvMCzD--21" value="Faux" style="edgeLabel;html=1;align=center;verticalAlign=middle;resizable=0;points=[];" vertex="1" connectable="0" parent="B5zKuTQyoC2QHCvMCzD--20">
                    <mxGeometry x="-0.5363" y="-2" relative="1" as="geometry">
                        <mxPoint as="offset"/>
                    </mxGeometry>
                </mxCell>
                <mxCell id="B5zKuTQyoC2QHCvMCzD--23" style="edgeStyle=none;html=1;exitX=0.5;exitY=1;exitDx=0;exitDy=0;entryX=0.5;entryY=0;entryDx=0;entryDy=0;" edge="1" parent="B5zKuTQyoC2QHCvMCzD--1" source="B5zKuTQyoC2QHCvMCzD--27" target="B5zKuTQyoC2QHCvMCzD--25">
                    <mxGeometry relative="1" as="geometry"/>
                </mxCell>
                <mxCell id="B5zKuTQyoC2QHCvMCzD--24" style="edgeStyle=none;html=1;exitX=0.5;exitY=1;exitDx=0;exitDy=0;entryX=0.5;entryY=0;entryDx=0;entryDy=0;" edge="1" parent="B5zKuTQyoC2QHCvMCzD--1" source="B5zKuTQyoC2QHCvMCzD--25">
                    <mxGeometry relative="1" as="geometry">
                        <mxPoint x="399" y="293" as="targetPoint"/>
                    </mxGeometry>
                </mxCell>
                <mxCell id="B5zKuTQyoC2QHCvMCzD--25" value="convertir nombre en entier" style="shape=process;whiteSpace=wrap;html=1;backgroundOutline=1;" vertex="1" parent="B5zKuTQyoC2QHCvMCzD--1">
                    <mxGeometry x="319" y="220" width="160" height="40" as="geometry"/>
                </mxCell>
                <mxCell id="B5zKuTQyoC2QHCvMCzD--26" value="Vrai" style="edgeStyle=none;html=1;exitX=1;exitY=0.5;exitDx=0;exitDy=0;entryX=0.5;entryY=0;entryDx=0;entryDy=0;" edge="1" parent="B5zKuTQyoC2QHCvMCzD--1">
                    <mxGeometry x="-0.4909" relative="1" as="geometry">
                        <Array as="points">
                            <mxPoint x="510" y="333"/>
                            <mxPoint x="550" y="333"/>
                        </Array>
                        <mxPoint x="439" y="333" as="sourcePoint"/>
                        <mxPoint x="552.5" y="383" as="targetPoint"/>
                        <mxPoint as="offset"/>
                    </mxGeometry>
                </mxCell>
                <mxCell id="B5zKuTQyoC2QHCvMCzD--27" value="LIRE nombre" style="shape=parallelogram;perimeter=parallelogramPerimeter;whiteSpace=wrap;html=1;fixedSize=1;" vertex="1" parent="B5zKuTQyoC2QHCvMCzD--1">
                    <mxGeometry x="321.5" y="150" width="155" height="40" as="geometry"/>
                </mxCell>
            </root>
        </mxGraphModel>
    </diagram>
    <diagram name="fond-ordino3" id="v-JrTb51rZZixBLTKQ52">
        <mxGraphModel dx="984" dy="374" grid="1" gridSize="10" guides="1" tooltips="1" connect="1" arrows="1" fold="1" page="1" pageScale="1" pageWidth="827" pageHeight="1169" math="0" shadow="0">
            <root>
                <mxCell id="Df5-xESGXKFpU3kfuXSB-0"/>
                <mxCell id="Df5-xESGXKFpU3kfuXSB-1" parent="Df5-xESGXKFpU3kfuXSB-0"/>
                <mxCell id="Df5-xESGXKFpU3kfuXSB-3" value="FIN" style="ellipse;whiteSpace=wrap;html=1;" vertex="1" parent="Df5-xESGXKFpU3kfuXSB-1">
                    <mxGeometry x="194" y="555" width="130" height="40" as="geometry"/>
                </mxCell>
                <mxCell id="Df5-xESGXKFpU3kfuXSB-4" style="edgeStyle=none;html=1;exitX=0.5;exitY=1;exitDx=0;exitDy=0;entryX=0.5;entryY=0;entryDx=0;entryDy=0;" edge="1" parent="Df5-xESGXKFpU3kfuXSB-1" source="Df5-xESGXKFpU3kfuXSB-5" target="Df5-xESGXKFpU3kfuXSB-7">
                    <mxGeometry relative="1" as="geometry"/>
                </mxCell>
                <mxCell id="Df5-xESGXKFpU3kfuXSB-5" value="DÃ‰BUT" style="ellipse;whiteSpace=wrap;html=1;" vertex="1" parent="Df5-xESGXKFpU3kfuXSB-1">
                    <mxGeometry x="309" y="20" width="180" height="30" as="geometry"/>
                </mxCell>
                <mxCell id="Df5-xESGXKFpU3kfuXSB-6" style="edgeStyle=none;html=1;exitX=0.5;exitY=1;exitDx=0;exitDy=0;entryX=0.5;entryY=0;entryDx=0;entryDy=0;" edge="1" parent="Df5-xESGXKFpU3kfuXSB-1" source="Df5-xESGXKFpU3kfuXSB-7" target="Df5-xESGXKFpU3kfuXSB-24">
                    <mxGeometry relative="1" as="geometry"/>
                </mxCell>
                <mxCell id="Df5-xESGXKFpU3kfuXSB-7" value="AFFICHER &quot;Entrez la taux&quot;" style="shape=parallelogram;perimeter=parallelogramPerimeter;whiteSpace=wrap;html=1;fixedSize=1;" vertex="1" parent="Df5-xESGXKFpU3kfuXSB-1">
                    <mxGeometry x="304" y="80" width="190" height="40" as="geometry"/>
                </mxCell>
                <mxCell id="Df5-xESGXKFpU3kfuXSB-8" style="edgeStyle=none;html=1;exitX=0.5;exitY=1;exitDx=0;exitDy=0;entryX=0;entryY=0.5;entryDx=0;entryDy=0;" edge="1" parent="Df5-xESGXKFpU3kfuXSB-1" target="Df5-xESGXKFpU3kfuXSB-3">
                    <mxGeometry relative="1" as="geometry">
                        <mxPoint x="129.75" y="505" as="sourcePoint"/>
                    </mxGeometry>
                </mxCell>
                <mxCell id="Df5-xESGXKFpU3kfuXSB-10" style="edgeStyle=none;html=1;exitX=0.5;exitY=1;exitDx=0;exitDy=0;entryX=0.5;entryY=1;entryDx=0;entryDy=0;" edge="1" parent="Df5-xESGXKFpU3kfuXSB-1" target="Df5-xESGXKFpU3kfuXSB-3">
                    <mxGeometry relative="1" as="geometry">
                        <mxPoint x="552.5" y="425" as="sourcePoint"/>
                        <Array as="points">
                            <mxPoint x="553" y="595"/>
                        </Array>
                    </mxGeometry>
                </mxCell>
                <mxCell id="Df5-xESGXKFpU3kfuXSB-13" style="edgeStyle=none;html=1;exitX=0.5;exitY=1;exitDx=0;exitDy=0;entryX=1;entryY=0.5;entryDx=0;entryDy=0;" edge="1" parent="Df5-xESGXKFpU3kfuXSB-1" target="Df5-xESGXKFpU3kfuXSB-3">
                    <mxGeometry relative="1" as="geometry">
                        <mxPoint x="377.75" y="505" as="sourcePoint"/>
                    </mxGeometry>
                </mxCell>
                <mxCell id="Df5-xESGXKFpU3kfuXSB-14" style="edgeStyle=none;html=1;exitX=0;exitY=0.5;exitDx=0;exitDy=0;entryX=0.5;entryY=0;entryDx=0;entryDy=0;" edge="1" parent="Df5-xESGXKFpU3kfuXSB-1">
                    <mxGeometry relative="1" as="geometry">
                        <Array as="points">
                            <mxPoint x="259" y="335"/>
                        </Array>
                        <mxPoint x="359" y="335" as="sourcePoint"/>
                        <mxPoint x="259" y="375" as="targetPoint"/>
                    </mxGeometry>
                </mxCell>
                <mxCell id="Df5-xESGXKFpU3kfuXSB-15" value="Faux" style="edgeLabel;html=1;align=center;verticalAlign=middle;resizable=0;points=[];" vertex="1" connectable="0" parent="Df5-xESGXKFpU3kfuXSB-14">
                    <mxGeometry x="-0.4986" y="-1" relative="1" as="geometry">
                        <mxPoint x="-5" y="1" as="offset"/>
                    </mxGeometry>
                </mxCell>
                <mxCell id="Df5-xESGXKFpU3kfuXSB-16" value="Vrai" style="edgeStyle=none;html=1;exitX=1;exitY=0.5;exitDx=0;exitDy=0;entryX=0.5;entryY=0;entryDx=0;entryDy=0;" edge="1" parent="Df5-xESGXKFpU3kfuXSB-1">
                    <mxGeometry x="-0.4909" relative="1" as="geometry">
                        <Array as="points">
                            <mxPoint x="550" y="335"/>
                        </Array>
                        <mxPoint x="439" y="335" as="sourcePoint"/>
                        <mxPoint x="552.5" y="385" as="targetPoint"/>
                        <mxPoint as="offset"/>
                    </mxGeometry>
                </mxCell>
                <mxCell id="Df5-xESGXKFpU3kfuXSB-18" style="edgeStyle=none;html=1;exitX=1;exitY=0.5;exitDx=0;exitDy=0;entryX=0.5;entryY=0;entryDx=0;entryDy=0;" edge="1" parent="Df5-xESGXKFpU3kfuXSB-1">
                    <mxGeometry relative="1" as="geometry">
                        <Array as="points">
                            <mxPoint x="378" y="415"/>
                        </Array>
                        <mxPoint x="299" y="415" as="sourcePoint"/>
                        <mxPoint x="377.75" y="465" as="targetPoint"/>
                    </mxGeometry>
                </mxCell>
                <mxCell id="Df5-xESGXKFpU3kfuXSB-19" value="Vrai" style="edgeLabel;html=1;align=center;verticalAlign=middle;resizable=0;points=[];" vertex="1" connectable="0" parent="Df5-xESGXKFpU3kfuXSB-18">
                    <mxGeometry x="-0.6869" y="-1" relative="1" as="geometry">
                        <mxPoint x="11" y="-1" as="offset"/>
                    </mxGeometry>
                </mxCell>
                <mxCell id="Df5-xESGXKFpU3kfuXSB-20" style="edgeStyle=none;html=1;exitX=0;exitY=0.5;exitDx=0;exitDy=0;entryX=0.5;entryY=0;entryDx=0;entryDy=0;" edge="1" parent="Df5-xESGXKFpU3kfuXSB-1">
                    <mxGeometry relative="1" as="geometry">
                        <mxPoint x="219" y="415" as="sourcePoint"/>
                        <mxPoint x="129.75" y="465" as="targetPoint"/>
                        <Array as="points">
                            <mxPoint x="130" y="415"/>
                        </Array>
                    </mxGeometry>
                </mxCell>
                <mxCell id="Df5-xESGXKFpU3kfuXSB-21" value="Faux" style="edgeLabel;html=1;align=center;verticalAlign=middle;resizable=0;points=[];" vertex="1" connectable="0" parent="Df5-xESGXKFpU3kfuXSB-20">
                    <mxGeometry x="-0.5363" y="-2" relative="1" as="geometry">
                        <mxPoint as="offset"/>
                    </mxGeometry>
                </mxCell>
                <mxCell id="Df5-xESGXKFpU3kfuXSB-23" style="edgeStyle=none;html=1;exitX=0.5;exitY=1;exitDx=0;exitDy=0;" edge="1" parent="Df5-xESGXKFpU3kfuXSB-1" source="Df5-xESGXKFpU3kfuXSB-24" target="Df5-xESGXKFpU3kfuXSB-26">
                    <mxGeometry relative="1" as="geometry"/>
                </mxCell>
                <mxCell id="Df5-xESGXKFpU3kfuXSB-24" value="LIRE taux" style="shape=parallelogram;perimeter=parallelogramPerimeter;whiteSpace=wrap;html=1;fixedSize=1;" vertex="1" parent="Df5-xESGXKFpU3kfuXSB-1">
                    <mxGeometry x="321.5" y="150" width="155" height="40" as="geometry"/>
                </mxCell>
                <mxCell id="Df5-xESGXKFpU3kfuXSB-25" style="edgeStyle=none;html=1;exitX=0.5;exitY=1;exitDx=0;exitDy=0;entryX=0.5;entryY=0;entryDx=0;entryDy=0;" edge="1" parent="Df5-xESGXKFpU3kfuXSB-1" source="Df5-xESGXKFpU3kfuXSB-26">
                    <mxGeometry relative="1" as="geometry">
                        <mxPoint x="399" y="292" as="targetPoint"/>
                    </mxGeometry>
                </mxCell>
                <mxCell id="Df5-xESGXKFpU3kfuXSB-26" value="convertir taux en entier" style="shape=process;whiteSpace=wrap;html=1;backgroundOutline=1;" vertex="1" parent="Df5-xESGXKFpU3kfuXSB-1">
                    <mxGeometry x="320" y="221" width="160" height="40" as="geometry"/>
                </mxCell>
            </root>
        </mxGraphModel>
    </diagram>
    <diagram name="fond-ordino2" id="KtKhs5UxT2KcxFyC6D2C">
        <mxGraphModel dx="984" dy="374" grid="1" gridSize="10" guides="1" tooltips="1" connect="1" arrows="1" fold="1" page="1" pageScale="1" pageWidth="827" pageHeight="1169" math="0" shadow="0">
            <root>
                <mxCell id="SfeVbXdUz5Ifyso1kgSz-0"/>
                <mxCell id="SfeVbXdUz5Ifyso1kgSz-1" parent="SfeVbXdUz5Ifyso1kgSz-0"/>
                <mxCell id="SfeVbXdUz5Ifyso1kgSz-3" value="FIN" style="ellipse;whiteSpace=wrap;html=1;" vertex="1" parent="SfeVbXdUz5Ifyso1kgSz-1">
                    <mxGeometry x="194" y="533" width="130" height="40" as="geometry"/>
                </mxCell>
                <mxCell id="SfeVbXdUz5Ifyso1kgSz-4" style="edgeStyle=none;html=1;exitX=0.5;exitY=1;exitDx=0;exitDy=0;entryX=0.5;entryY=0;entryDx=0;entryDy=0;" edge="1" parent="SfeVbXdUz5Ifyso1kgSz-1" source="SfeVbXdUz5Ifyso1kgSz-5" target="SfeVbXdUz5Ifyso1kgSz-7">
                    <mxGeometry relative="1" as="geometry"/>
                </mxCell>
                <mxCell id="SfeVbXdUz5Ifyso1kgSz-5" value="DÃ‰BUT" style="ellipse;whiteSpace=wrap;html=1;" vertex="1" parent="SfeVbXdUz5Ifyso1kgSz-1">
                    <mxGeometry x="309" y="20" width="180" height="30" as="geometry"/>
                </mxCell>
                <mxCell id="SfeVbXdUz5Ifyso1kgSz-6" style="edgeStyle=none;html=1;exitX=0.5;exitY=1;exitDx=0;exitDy=0;entryX=0.5;entryY=0;entryDx=0;entryDy=0;" edge="1" parent="SfeVbXdUz5Ifyso1kgSz-1" source="SfeVbXdUz5Ifyso1kgSz-7" target="SfeVbXdUz5Ifyso1kgSz-24">
                    <mxGeometry relative="1" as="geometry"/>
                </mxCell>
                <mxCell id="SfeVbXdUz5Ifyso1kgSz-7" value="AFFICHER &quot;Entrez la note&quot;" style="shape=parallelogram;perimeter=parallelogramPerimeter;whiteSpace=wrap;html=1;fixedSize=1;" vertex="1" parent="SfeVbXdUz5Ifyso1kgSz-1">
                    <mxGeometry x="304" y="80" width="190" height="40" as="geometry"/>
                </mxCell>
                <mxCell id="SfeVbXdUz5Ifyso1kgSz-8" style="edgeStyle=none;html=1;entryX=0;entryY=0.5;entryDx=0;entryDy=0;exitX=0.447;exitY=1.036;exitDx=0;exitDy=0;exitPerimeter=0;" edge="1" parent="SfeVbXdUz5Ifyso1kgSz-1" target="SfeVbXdUz5Ifyso1kgSz-3">
                    <mxGeometry relative="1" as="geometry">
                        <mxPoint x="111.29649999999992" y="484.44000000000005" as="sourcePoint"/>
                    </mxGeometry>
                </mxCell>
                <mxCell id="SfeVbXdUz5Ifyso1kgSz-10" style="edgeStyle=none;html=1;exitX=0.5;exitY=1;exitDx=0;exitDy=0;entryX=0.5;entryY=1;entryDx=0;entryDy=0;" edge="1" parent="SfeVbXdUz5Ifyso1kgSz-1" target="SfeVbXdUz5Ifyso1kgSz-3">
                    <mxGeometry relative="1" as="geometry">
                        <mxPoint x="552.5" y="403" as="sourcePoint"/>
                        <Array as="points">
                            <mxPoint x="553" y="573"/>
                        </Array>
                    </mxGeometry>
                </mxCell>
                <mxCell id="SfeVbXdUz5Ifyso1kgSz-13" style="edgeStyle=none;html=1;exitX=0.5;exitY=1;exitDx=0;exitDy=0;entryX=1;entryY=0.5;entryDx=0;entryDy=0;" edge="1" parent="SfeVbXdUz5Ifyso1kgSz-1" target="SfeVbXdUz5Ifyso1kgSz-3">
                    <mxGeometry relative="1" as="geometry">
                        <mxPoint x="377.75" y="483" as="sourcePoint"/>
                    </mxGeometry>
                </mxCell>
                <mxCell id="SfeVbXdUz5Ifyso1kgSz-14" style="edgeStyle=none;html=1;exitX=0;exitY=0.5;exitDx=0;exitDy=0;entryX=0.5;entryY=0;entryDx=0;entryDy=0;" edge="1" parent="SfeVbXdUz5Ifyso1kgSz-1">
                    <mxGeometry relative="1" as="geometry">
                        <Array as="points">
                            <mxPoint x="259" y="313"/>
                        </Array>
                        <mxPoint x="359" y="313" as="sourcePoint"/>
                        <mxPoint x="259" y="353" as="targetPoint"/>
                    </mxGeometry>
                </mxCell>
                <mxCell id="SfeVbXdUz5Ifyso1kgSz-15" value="Faux" style="edgeLabel;html=1;align=center;verticalAlign=middle;resizable=0;points=[];" vertex="1" connectable="0" parent="SfeVbXdUz5Ifyso1kgSz-14">
                    <mxGeometry x="-0.4986" y="-1" relative="1" as="geometry">
                        <mxPoint x="-5" y="1" as="offset"/>
                    </mxGeometry>
                </mxCell>
                <mxCell id="SfeVbXdUz5Ifyso1kgSz-16" value="Vrai" style="edgeStyle=none;html=1;exitX=1;exitY=0.5;exitDx=0;exitDy=0;entryX=0.5;entryY=0;entryDx=0;entryDy=0;" edge="1" parent="SfeVbXdUz5Ifyso1kgSz-1">
                    <mxGeometry x="-0.4909" relative="1" as="geometry">
                        <Array as="points">
                            <mxPoint x="550" y="313"/>
                        </Array>
                        <mxPoint x="439" y="313" as="sourcePoint"/>
                        <mxPoint x="552.5" y="363" as="targetPoint"/>
                        <mxPoint as="offset"/>
                    </mxGeometry>
                </mxCell>
                <mxCell id="SfeVbXdUz5Ifyso1kgSz-18" style="edgeStyle=none;html=1;exitX=1;exitY=0.5;exitDx=0;exitDy=0;entryX=0.5;entryY=0;entryDx=0;entryDy=0;" edge="1" parent="SfeVbXdUz5Ifyso1kgSz-1">
                    <mxGeometry relative="1" as="geometry">
                        <Array as="points">
                            <mxPoint x="378" y="393"/>
                        </Array>
                        <mxPoint x="299" y="393" as="sourcePoint"/>
                        <mxPoint x="377.75" y="443" as="targetPoint"/>
                    </mxGeometry>
                </mxCell>
                <mxCell id="SfeVbXdUz5Ifyso1kgSz-19" value="Vrai" style="edgeLabel;html=1;align=center;verticalAlign=middle;resizable=0;points=[];" vertex="1" connectable="0" parent="SfeVbXdUz5Ifyso1kgSz-18">
                    <mxGeometry x="-0.6869" y="-1" relative="1" as="geometry">
                        <mxPoint x="11" y="-1" as="offset"/>
                    </mxGeometry>
                </mxCell>
                <mxCell id="SfeVbXdUz5Ifyso1kgSz-20" style="edgeStyle=none;html=1;exitX=0;exitY=0.5;exitDx=0;exitDy=0;entryX=0.562;entryY=0.022;entryDx=0;entryDy=0;entryPerimeter=0;" edge="1" parent="SfeVbXdUz5Ifyso1kgSz-1">
                    <mxGeometry relative="1" as="geometry">
                        <mxPoint x="219" y="393" as="sourcePoint"/>
                        <mxPoint x="129.63900000000012" y="443.88" as="targetPoint"/>
                        <Array as="points">
                            <mxPoint x="130" y="393"/>
                        </Array>
                    </mxGeometry>
                </mxCell>
                <mxCell id="SfeVbXdUz5Ifyso1kgSz-21" value="Faux" style="edgeLabel;html=1;align=center;verticalAlign=middle;resizable=0;points=[];" vertex="1" connectable="0" parent="SfeVbXdUz5Ifyso1kgSz-20">
                    <mxGeometry x="-0.5363" y="-2" relative="1" as="geometry">
                        <mxPoint as="offset"/>
                    </mxGeometry>
                </mxCell>
                <mxCell id="SfeVbXdUz5Ifyso1kgSz-23" style="edgeStyle=none;html=1;exitX=0.5;exitY=1;exitDx=0;exitDy=0;entryX=0.5;entryY=0;entryDx=0;entryDy=0;" edge="1" parent="SfeVbXdUz5Ifyso1kgSz-1" source="SfeVbXdUz5Ifyso1kgSz-24" target="SfeVbXdUz5Ifyso1kgSz-26">
                    <mxGeometry relative="1" as="geometry"/>
                </mxCell>
                <mxCell id="SfeVbXdUz5Ifyso1kgSz-24" value="LIRE note" style="shape=parallelogram;perimeter=parallelogramPerimeter;whiteSpace=wrap;html=1;fixedSize=1;" vertex="1" parent="SfeVbXdUz5Ifyso1kgSz-1">
                    <mxGeometry x="321.5" y="150" width="155" height="40" as="geometry"/>
                </mxCell>
                <mxCell id="SfeVbXdUz5Ifyso1kgSz-25" style="edgeStyle=none;html=1;exitX=0.5;exitY=1;exitDx=0;exitDy=0;" edge="1" parent="SfeVbXdUz5Ifyso1kgSz-1" source="SfeVbXdUz5Ifyso1kgSz-26">
                    <mxGeometry relative="1" as="geometry">
                        <mxPoint x="399" y="273" as="targetPoint"/>
                    </mxGeometry>
                </mxCell>
                <mxCell id="SfeVbXdUz5Ifyso1kgSz-26" value="convertir note en entier" style="shape=process;whiteSpace=wrap;html=1;backgroundOutline=1;" vertex="1" parent="SfeVbXdUz5Ifyso1kgSz-1">
                    <mxGeometry x="319" y="210" width="160" height="40" as="geometry"/>
                </mxCell>
            </root>
        </mxGraphModel>
    </diagram>
    <diagram name="fond-ordino1" id="9NhsfeSPo6kgo6kZ8KGk">
        <mxGraphModel dx="984" dy="374" grid="1" gridSize="10" guides="1" tooltips="1" connect="1" arrows="1" fold="1" page="1" pageScale="1" pageWidth="827" pageHeight="1169" math="0" shadow="0">
            <root>
                <mxCell id="NdkJI3peJ-z4rqxeteqc-0"/>
                <mxCell id="NdkJI3peJ-z4rqxeteqc-1" parent="NdkJI3peJ-z4rqxeteqc-0"/>
                <mxCell id="NdkJI3peJ-z4rqxeteqc-3" value="FIN" style="ellipse;whiteSpace=wrap;html=1;" vertex="1" parent="NdkJI3peJ-z4rqxeteqc-1">
                    <mxGeometry x="194" y="560" width="130" height="40" as="geometry"/>
                </mxCell>
                <mxCell id="NdkJI3peJ-z4rqxeteqc-4" style="edgeStyle=none;html=1;exitX=0.5;exitY=1;exitDx=0;exitDy=0;entryX=0.5;entryY=0;entryDx=0;entryDy=0;" edge="1" parent="NdkJI3peJ-z4rqxeteqc-1" source="NdkJI3peJ-z4rqxeteqc-5" target="NdkJI3peJ-z4rqxeteqc-7">
                    <mxGeometry relative="1" as="geometry"/>
                </mxCell>
                <mxCell id="NdkJI3peJ-z4rqxeteqc-5" value="DÃ‰BUT" style="ellipse;whiteSpace=wrap;html=1;" vertex="1" parent="NdkJI3peJ-z4rqxeteqc-1">
                    <mxGeometry x="309" y="20" width="180" height="30" as="geometry"/>
                </mxCell>
                <mxCell id="NdkJI3peJ-z4rqxeteqc-6" style="edgeStyle=none;html=1;exitX=0.5;exitY=1;exitDx=0;exitDy=0;entryX=0.5;entryY=0;entryDx=0;entryDy=0;" edge="1" parent="NdkJI3peJ-z4rqxeteqc-1" source="NdkJI3peJ-z4rqxeteqc-7" target="NdkJI3peJ-z4rqxeteqc-19">
                    <mxGeometry relative="1" as="geometry"/>
                </mxCell>
                <mxCell id="NdkJI3peJ-z4rqxeteqc-7" value="AFFICHER &quot;Entrez le pH&quot;" style="shape=parallelogram;perimeter=parallelogramPerimeter;whiteSpace=wrap;html=1;fixedSize=1;" vertex="1" parent="NdkJI3peJ-z4rqxeteqc-1">
                    <mxGeometry x="304" y="80" width="190" height="40" as="geometry"/>
                </mxCell>
                <mxCell id="NdkJI3peJ-z4rqxeteqc-8" style="edgeStyle=none;html=1;exitX=0.5;exitY=1;exitDx=0;exitDy=0;entryX=0;entryY=0.5;entryDx=0;entryDy=0;" edge="1" parent="NdkJI3peJ-z4rqxeteqc-1" target="NdkJI3peJ-z4rqxeteqc-3">
                    <mxGeometry relative="1" as="geometry">
                        <mxPoint x="129.75" y="510" as="sourcePoint"/>
                    </mxGeometry>
                </mxCell>
                <mxCell id="NdkJI3peJ-z4rqxeteqc-10" style="edgeStyle=none;html=1;exitX=0.5;exitY=1;exitDx=0;exitDy=0;entryX=0.5;entryY=1;entryDx=0;entryDy=0;" edge="1" parent="NdkJI3peJ-z4rqxeteqc-1" target="NdkJI3peJ-z4rqxeteqc-3">
                    <mxGeometry relative="1" as="geometry">
                        <mxPoint x="552.5" y="430" as="sourcePoint"/>
                        <Array as="points">
                            <mxPoint x="553" y="600"/>
                        </Array>
                    </mxGeometry>
                </mxCell>
                <mxCell id="NdkJI3peJ-z4rqxeteqc-12" style="edgeStyle=none;html=1;exitX=0.5;exitY=1;exitDx=0;exitDy=0;entryX=1;entryY=0.5;entryDx=0;entryDy=0;" edge="1" parent="NdkJI3peJ-z4rqxeteqc-1" target="NdkJI3peJ-z4rqxeteqc-3">
                    <mxGeometry relative="1" as="geometry">
                        <mxPoint x="377.75" y="510" as="sourcePoint"/>
                    </mxGeometry>
                </mxCell>
                <mxCell id="NdkJI3peJ-z4rqxeteqc-14" style="edgeStyle=none;html=1;exitX=0;exitY=0.5;exitDx=0;exitDy=0;entryX=0.5;entryY=0;entryDx=0;entryDy=0;" edge="1" parent="NdkJI3peJ-z4rqxeteqc-1">
                    <mxGeometry relative="1" as="geometry">
                        <Array as="points">
                            <mxPoint x="259" y="340"/>
                        </Array>
                        <mxPoint x="359" y="340" as="sourcePoint"/>
                        <mxPoint x="259" y="380" as="targetPoint"/>
                    </mxGeometry>
                </mxCell>
                <mxCell id="NdkJI3peJ-z4rqxeteqc-15" value="Faux" style="edgeLabel;html=1;align=center;verticalAlign=middle;resizable=0;points=[];" vertex="1" connectable="0" parent="NdkJI3peJ-z4rqxeteqc-14">
                    <mxGeometry x="-0.4986" y="-1" relative="1" as="geometry">
                        <mxPoint x="-5" y="1" as="offset"/>
                    </mxGeometry>
                </mxCell>
                <mxCell id="NdkJI3peJ-z4rqxeteqc-16" value="Vrai" style="edgeStyle=none;html=1;exitX=1;exitY=0.5;exitDx=0;exitDy=0;entryX=0.5;entryY=0;entryDx=0;entryDy=0;" edge="1" parent="NdkJI3peJ-z4rqxeteqc-1">
                    <mxGeometry x="-0.5159" relative="1" as="geometry">
                        <Array as="points">
                            <mxPoint x="553" y="340"/>
                        </Array>
                        <mxPoint x="439" y="340" as="sourcePoint"/>
                        <mxPoint x="552.5" y="390" as="targetPoint"/>
                        <mxPoint as="offset"/>
                    </mxGeometry>
                </mxCell>
                <mxCell id="NdkJI3peJ-z4rqxeteqc-18" style="edgeStyle=none;html=1;exitX=0.5;exitY=1;exitDx=0;exitDy=0;entryX=0.5;entryY=0;entryDx=0;entryDy=0;" edge="1" parent="NdkJI3peJ-z4rqxeteqc-1" source="NdkJI3peJ-z4rqxeteqc-19" target="NdkJI3peJ-z4rqxeteqc-26">
                    <mxGeometry relative="1" as="geometry"/>
                </mxCell>
                <mxCell id="NdkJI3peJ-z4rqxeteqc-19" value="LIRE pH&amp;nbsp;" style="shape=parallelogram;perimeter=parallelogramPerimeter;whiteSpace=wrap;html=1;fixedSize=1;" vertex="1" parent="NdkJI3peJ-z4rqxeteqc-1">
                    <mxGeometry x="321.5" y="150" width="155" height="40" as="geometry"/>
                </mxCell>
                <mxCell id="NdkJI3peJ-z4rqxeteqc-20" style="edgeStyle=none;html=1;exitX=1;exitY=0.5;exitDx=0;exitDy=0;entryX=0.5;entryY=0;entryDx=0;entryDy=0;" edge="1" parent="NdkJI3peJ-z4rqxeteqc-1">
                    <mxGeometry relative="1" as="geometry">
                        <Array as="points">
                            <mxPoint x="378" y="420"/>
                        </Array>
                        <mxPoint x="299" y="420" as="sourcePoint"/>
                        <mxPoint x="377.75" y="470" as="targetPoint"/>
                    </mxGeometry>
                </mxCell>
                <mxCell id="NdkJI3peJ-z4rqxeteqc-21" value="Vrai" style="edgeLabel;html=1;align=center;verticalAlign=middle;resizable=0;points=[];" vertex="1" connectable="0" parent="NdkJI3peJ-z4rqxeteqc-20">
                    <mxGeometry x="-0.6869" y="-1" relative="1" as="geometry">
                        <mxPoint x="11" y="-1" as="offset"/>
                    </mxGeometry>
                </mxCell>
                <mxCell id="NdkJI3peJ-z4rqxeteqc-22" style="edgeStyle=none;html=1;exitX=0;exitY=0.5;exitDx=0;exitDy=0;entryX=0.5;entryY=0;entryDx=0;entryDy=0;" edge="1" parent="NdkJI3peJ-z4rqxeteqc-1">
                    <mxGeometry relative="1" as="geometry">
                        <mxPoint x="219" y="420" as="sourcePoint"/>
                        <mxPoint x="129.75" y="470" as="targetPoint"/>
                        <Array as="points">
                            <mxPoint x="130" y="420"/>
                        </Array>
                    </mxGeometry>
                </mxCell>
                <mxCell id="NdkJI3peJ-z4rqxeteqc-23" value="Faux" style="edgeLabel;html=1;align=center;verticalAlign=middle;resizable=0;points=[];" vertex="1" connectable="0" parent="NdkJI3peJ-z4rqxeteqc-22">
                    <mxGeometry x="-0.5363" y="-2" relative="1" as="geometry">
                        <mxPoint as="offset"/>
                    </mxGeometry>
                </mxCell>
                <mxCell id="NdkJI3peJ-z4rqxeteqc-25" style="edgeStyle=none;html=1;exitX=0.5;exitY=1;exitDx=0;exitDy=0;entryX=0.5;entryY=0;entryDx=0;entryDy=0;" edge="1" parent="NdkJI3peJ-z4rqxeteqc-1" source="NdkJI3peJ-z4rqxeteqc-26">
                    <mxGeometry relative="1" as="geometry">
                        <mxPoint x="399" y="300" as="targetPoint"/>
                    </mxGeometry>
                </mxCell>
                <mxCell id="NdkJI3peJ-z4rqxeteqc-26" value="convertir pH en entier" style="shape=process;whiteSpace=wrap;html=1;backgroundOutline=1;" vertex="1" parent="NdkJI3peJ-z4rqxeteqc-1">
                    <mxGeometry x="319" y="225" width="160" height="40" as="geometry"/>
                </mxCell>
            </root>
        </mxGraphModel>
    </diagram>
    <diagram id="gymEDDcOsK8KYVxBIIsU" name="formes">
        <mxGraphModel dx="984" dy="374" grid="1" gridSize="10" guides="1" tooltips="1" connect="1" arrows="1" fold="1" page="1" pageScale="1" pageWidth="827" pageHeight="1169" math="0" shadow="0">
            <root>
                <mxCell id="0"/>
                <mxCell id="1" parent="0"/>
                <mxCell id="2" value="" style="ellipse;whiteSpace=wrap;html=1;" vertex="1" parent="1">
                    <mxGeometry x="260" y="50" width="120" height="80" as="geometry"/>
                </mxCell>
                <mxCell id="3" value="" style="shape=parallelogram;perimeter=parallelogramPerimeter;whiteSpace=wrap;html=1;fixedSize=1;" vertex="1" parent="1">
                    <mxGeometry x="250" y="170" width="120" height="60" as="geometry"/>
                </mxCell>
                <mxCell id="4" value="" style="rhombus;whiteSpace=wrap;html=1;" vertex="1" parent="1">
                    <mxGeometry x="450" y="150" width="80" height="80" as="geometry"/>
                </mxCell>
                <mxCell id="5" value="" style="shape=process;whiteSpace=wrap;html=1;backgroundOutline=1;" vertex="1" parent="1">
                    <mxGeometry x="100" y="160" width="120" height="60" as="geometry"/>
                </mxCell>
                <mxCell id="6" value="" style="rounded=0;whiteSpace=wrap;html=1;" vertex="1" parent="1">
                    <mxGeometry x="110" y="270" width="120" height="60" as="geometry"/>
                </mxCell>
                <mxCell id="7" value="" style="endArrow=classic;html=1;" edge="1" parent="1">
                    <mxGeometry width="50" height="50" relative="1" as="geometry">
                        <mxPoint x="290" y="410" as="sourcePoint"/>
                        <mxPoint x="340" y="360" as="targetPoint"/>
                    </mxGeometry>
                </mxCell>
            </root>
        </mxGraphModel>
    </diagram>
</mxfile>